Coordinates

Units are S.I. units (second, meters, Newtons, ...)
If the header above contains a line with 'inDegrees', this indicates whether rotational values are in degrees (yes) or radians (no).

inDegrees=no
nColumns=21
nRows=22
DataType=double
version=3
OpenSimVersion=4.6-2026-03-31-d6972f9e6
endheader
time	/jointset/ground_pelvis/pelvis_tilt/value	/jointset/ground_pelvis/pelvis_list/value	/jointset/ground_pelvis/pelvis_rotation/value	/jointset/ground_pelvis/pelvis_tx/value	/jointset/ground_pelvis/pelvis_ty/value	/jointset/ground_pelvis/pelvis_tz/value	/jointset/hip_r/hip_flexion_r/value	/jointset/hip_r/hip_adduction_r/value	/jointset/hip_r/hip_rotation_r/value	/jointset/walker_knee_r/knee_angle_r/value	/jointset/patellofemoral_r/knee_angle_r_beta/value	/jointset/ankle_r/ankle_angle_r/value	/jointset/subtalar_r/subtalar_angle_r/value	/jointset/hip_l/hip_flexion_l/value	/jointset/hip_l/hip_adduction_l/value	/jointset/hip_l/hip_rotation_l/value	/jointset/walker_knee_l/knee_angle_l/value	/jointset/patellofemoral_l/knee_angle_l_beta/value	/jointset/ankle_l/ankle_angle_l/value	/jointset/subtalar_l/subtalar_angle_l/value
147.496	-0.09759645366046318	0.06704258313654188	0.0234924014993308	0.971894954399576	1.031607341099252	-0.3591112692247753	-0.3027942188565612	-0.1147621044257558	-0.2432600921784803	0.5575328340447396	0.5575328344554495	-0.5631025549625425	-0.4731120615557673	0.4334448933980147	0.07791539675376244	-0.05882207234872575	0.1523136742429504	0.1523136740958728	-0.02960858220030421	-0.03766514789782179
147.5	-0.09100140909940578	0.06671110877888434	0.02459849755307447	0.9720666407938863	1.030505538195666	-0.3595115697837241	-0.2993087887202699	-0.1178387405453998	-0.2365241360008425	0.5930509291848068	0.5930509296114213	-0.567048386287928	-0.4948001243840795	0.4244433955415822	0.07802890917330087	-0.06077391440747236	0.1638081083675453	0.163808108068574	-0.0314504747375826	-0.04750521485884016
147.504	-0.0843726140227329	0.06657186845644571	0.02557526816373511	0.9721489213515128	1.029265990998995	-0.3598787040029482	-0.2950702811382496	-0.1210848816202773	-0.2292485397638709	0.6293975235421359	0.629397523965185	-0.5693966286714596	-0.5138854709748817	0.4159029176783336	0.07830571524632915	-0.06274327976793311	0.1771213893920194	0.1771213889457353	-0.03281633189505968	-0.05925304385692301
147.508	-0.07780406013528826	0.06665991971995558	0.02647126286956106	0.9721360202211645	1.02788246205937	-0.3602149447910566	-0.2899892825355944	-0.1245230098847562	-0.2215794435009323	0.6664893932021102	0.6664893936061891	-0.5701133935487744	-0.5302573828939051	0.4079581476259824	0.07882231406515637	-0.06466553834347173	0.1921817778393521	0.1921817772526752	-0.03349154577831438	-0.07266878368510468
147.512	-0.07139119262395838	0.06701207141469251	0.02734163533598647	0.972022283179792	1.0263497738661	-0.3605234431978177	-0.2839777379115769	-0.1281822392816939	-0.2136645111398805	0.7042417378041169	0.7042417381780062	-0.5691891343851493	-0.5438718952133064	0.4007420032816399	0.0796581093189179	-0.06646988840093818	0.2089201795847552	0.2089201788651284	-0.03328219585030482	-0.08751123911977299
147.516	-0.06522860182906746	0.06766582948772577	0.02824636381781319	0.9718024791513497	1.024664229198482	-0.3608080863956713	-0.2769518168371073	-0.1320974482137395	-0.205647941912882	0.7425669315290533	0.7425669318655966	-0.5666392178506334	-0.5547472554972781	0.3943803380502253	0.08089292066578574	-0.06808176861250753	0.2272672243191806	0.2272672234733604	-0.03202221800663225	-0.1035413002883258
147.52	-0.05940766836093225	0.06865800667458043	0.02924811113058879	0.9714721053790223	1.02282400696797	-0.3610733038843317	-0.2688345733071636	-0.1363077267289672	-0.1976653535229528	0.7813733781294491	0.7813733784250643	-0.5625035234478738	-0.56295772937837	0.3889865416028934	0.08260403096932172	-0.06942562620276659	0.2471497872664725	0.247149786300301	-0.02957939340445284	-0.1205242121460259
147.524	-0.05401422625964835	0.0700230766160079	0.0304098113756694	0.9710276787198415	1.020829516454787	-0.3613238319143638	-0.2595583257369949	-0.1408542197631166	-0.1898388134702732	0.8205645382670643	0.8205645385207578	-0.5568451172282644	-0.5686261163101355	0.3846562746810002	0.08486290809883872	-0.07042796045773085	0.268487210686973	0.26848720960616	-0.02585977291561533	-0.1382307752285858
147.528	-0.04912635937367805	0.07179135256882889	0.03179209424708603	0.9704669943500607	1.018683689281256	-0.3615644501985512	-0.2490666331388796	-0.145777469649411	-0.1822722882710603	0.86003821057847	0.8600382107905286	-0.5497480893001584	-0.5719153637175042	0.3814626367541409	0.08773175280219879	-0.07102049624056987	0.2911875076742219	0.291187506485898	-0.02081025829128819	-0.1564377061516616
147.532	-0.04481244478822414	0.07398708023717454	0.03345066832835304	0.9697893350551231	1.016392190349582	-0.3617997072751893	-0.2373157627106263	-0.1511143935637015	-0.1750477662745845	0.8996861350872171	0.899686135257954	-0.5413146804525416	-0.5730196573251336	0.3794520527618132	0.09126003683915121	-0.07114331758281384	0.3151438326227791	0.3151438313373521	-0.01441917335313293	-0.1749274400250939
147.536	-0.04112949699756074	0.07662654551644482	0.03543378899189229	0.9689956191312353	1.013963537106915	-0.3620336517282411	-0.2242756446515558	-0.156895061205237	-0.1682222960056987	0.9393939375184672	0.9393939376473145	-0.5316618700882627	-0.5721553525066811	0.3786410784215071	0.0954812023917412	-0.07074780015604255	0.3402314925354619	0.3402314911681643	-0.006714771465621412	-0.1934876405368434
147.54	-0.03812181027242093	0.07971630904644639	0.03777993465630887	0.9680884802994699	1.011409124872765	-0.3622695857299223	-0.209930402951176	-0.1631394608903858	-0.1618261465588435	0.9790413822758617	0.9790413823609274	-0.52091764910228	-0.5695521146343353	0.3790142391377096	0.1004096975993385	-0.06979920844347304	0.3663057607630331	0.3663057593346769	0.002238248270907871	-0.2119106591368725
147.544	-0.03581989244739395	0.08325168307853234	0.04051580852415947	0.9670722769394643	1.008743159659779	-0.3625098556596538	-0.194278565368876	-0.1698544518170725	-0.1558622242404464	1.018502885261181	1.018502885299283	-0.5092172158558748	-0.5654446155283652	0.3805229848329034	0.1060385215962497	-0.06827884199491908	0.3932007257342869	0.3932007242710518	0.01234399908878749	-0.2299931715641938
147.548	-0.03423971649421064	0.08721555051909062	0.04365477382835465	0.9659530305401235	1.005982500168391	-0.3627556927983421	-0.1773330093908745	-0.1770310889653098	-0.1503067925339475	1.057648252009012	1.057648251996097	-0.496699302266866	-0.5600650690531189	0.3830858376916349	0.1123374338742347	-0.06618561329517592	0.4207293418758254	0.4207293404081401	0.02348206820021461	-0.247536194672714
147.552	-0.03338232542379918	0.091577603743252	0.04719581501027409	0.9647382964778705	1.003146413221413	-0.3630071142015205	-0.1591206794895573	-0.1846424851252218	-0.145111464911766	1.096343615363115	1.096343615294963	-0.4835028017889058	-0.5536368236589522	0.3865897641273818	0.1192519542546467	-0.06353693776823684	0.4486847546656711	0.4486847532263773	0.03551508029283697	-0.2643456314910435
147.556	-0.03323379090623377	0.09629406872508928	0.05112309148870849	0.9634369750219137	1.000256253278052	-0.3632628895281253	-0.139682146494456	-0.1926423572525554	-0.1402063732706244	1.134452532837717	1.134452532710896	-0.4697638347591513	-0.5463691643552973	0.3908927020064759	0.1267032573720863	-0.06036883646897952	0.4768428690291953	0.4768428676512993	0.04829659301497316	-0.2802334251398291
147.56	-0.03376550655783183	0.1013079664957144	0.05540611990151946	0.9620590751468481	0.9973350802838526	-0.3635205764994252	-0.1190710917092314	-0.2009643924709479	-0.1355043625148817	1.171837196103892	1.171837195916916	-0.4556133298658541	-0.5384533862472664	0.3958270961726122	0.1345890421367172	-0.05673519976452205	0.5049660345036413	0.5049660332180083	0.06167876632699779	-0.2950193512568424
147.564	-0.03493481981342159	0.1065499376441947	0.06000059053988241	0.9606154465468015	0.9944072287227036	-0.363776625979967	-0.09735374872066706	-0.2095225487563331	-0.1309060237748555	1.208359717735616	1.208359717490034	-0.4411751552351004	-0.530060127805953	0.4012042765098139	0.142785418992451	-0.05270622209089194	0.5328076392845204	0.5328076381178511	0.07551931697959144	-0.308533433305492
147.568	-0.03668601924537761	0.1119396259157814	0.06484979026239085	0.9591174961991722	0.9914978407843404	-0.3640265539895972	-0.07460829366149797	-0.2182123614856028	-0.1263053316318342	1.24388346760106	1.243883467301983	-0.4265648074106944	-0.5213379144014989	0.4068194976501222	0.1511498077474101	-0.04836607223336874	0.5601173444266684	0.5601173434000652	0.08968735531101611	-0.3206189001888702
147.572	-0.03895167104874859	0.1173875903209166	0.06988656661080755	0.9575769054040897	0.9886323805263011	-0.3642651718936132	-0.05092417543543152	-0.2269132632779592	-0.1215955944251504	1.278274423438886	1.278274423094607	-0.4118886336359887	-0.512412825055255	0.4124574193831425	0.1595247821466875	-0.04380990881232388	0.5866466515649845	0.5866466506933148	0.1040677914591655	-0.3311355328623855
147.576	-0.04165426669516187	0.1227976906084443	0.07503573911904293	0.9560053618057601	0.9858361495059413	-0.3644868610341971	-0.02640139021628412	-0.2354918617623602	-0.1166754016659203	1.311402491058015	1.311402490678668	-0.3972435448226081	-0.503389169092922	0.4178977725553792	0.1677427418559985	-0.03914039458948553	0.612154484274371	0.6121544835664118	0.1185641099059078	-0.3399631882980669
147.58	-0.04470812105780951	0.128069867576087	0.08021684878333886	0.9544143192254715	0.9831338251183158	-0.3646858755809104	-0.001149711520102669	-0.2438060654761361	-0.111454270971672	1.343142744118437	1.343142743713949	-0.3827171878906962	-0.4943510643117476	0.4229209458712642	0.1756312431558414	-0.03446389730406051	0.6364124763706783	0.6364124758297887	0.1330994453868096	-0.347005253149373
